<svg width="1427" height="323" viewBox="0 0 1427 323" fill="none" xmlns="http://www.w3.org/2000/svg">
<g clip-path="url(#clip0_2139_2693)">
<path d="M25.44 44.24L0 296.97L51.71 302.17L66.57 154.57L25.83 44.28L25.44 44.24Z" fill="black"/>
<path d="M99.7798 215.02L119.16 207.85L99.7798 215.02Z" fill="black"/>
<path d="M88.5498 214.09L88.7998 216.27L89.3298 216.21L89.0198 215.36L88.5498 214.09Z" fill="black"/>
<path d="M179.66 14.7L128.63 20.54L128.85 22.49L129.27 21.01L177.99 34.8899L143.93 154.39L153.38 237.05L202.54 214.88L179.66 14.7Z" fill="black"/>
<path d="M327.45 214.58L275.87 220.48L271.67 183.71L202.54 214.88L205.98 244.97L154.96 250.81L153.38 237.05L107.37 257.81L88.6802 322.98L327.73 215.16L327.44 214.51L327.45 214.58Z" fill="black"/>
<path d="M205.98 244.97L202.54 214.88L153.38 237.05L154.96 250.81L205.98 244.97Z" fill="black"/>
<path d="M327.44 214.51L309.22 55.12L257.29 57.98L271.67 183.71L306.47 168.01L327.44 214.51Z" fill="black"/>
<path d="M327.45 214.58L327.44 214.51L306.47 168.01L271.67 183.71L275.87 220.48L327.45 214.58Z" fill="black"/>
<path d="M307.42 39.39L309.22 55.12L355.28 52.58L352.44 1L205.35 9.11L208.2 60.69L257.29 57.98L255.84 45.28L307.42 39.39Z" fill="black"/>
<path d="M307.42 39.39L255.84 45.28L257.29 57.98L309.22 55.12L307.42 39.39Z" fill="black"/>
<path d="M80.48 192.25L82.38 197.37L80.86 193.28L80.48 192.25Z" fill="black"/>
<path d="M104.33 108.57L134.06 189.06L135.09 185.42L143.93 154.39L128.85 22.49L104.33 108.57Z" fill="black"/>
<path d="M129.27 21.01L128.85 22.49L143.93 154.39L177.99 34.89L129.27 21.01Z" fill="black"/>
<path d="M90.2001 218.55L99.7801 215.02L89.3301 216.21L90.2001 218.55Z" fill="black"/>
<path d="M86.7799 198.63L82.3799 197.37L88.5499 214.09L86.7799 198.63Z" fill="black"/>
<path d="M82.3799 197.37L88.5499 214.09L82.3799 197.37Z" fill="black"/>
<path d="M83.22 167.42L87.7 166.91L104.33 108.57L73.93 26.27L25.75 44.07L25.83 44.28L77.15 49.45L66.57 154.57L80.01 190.96L80.48 192.25L84.46 178.29L83.22 167.42Z" fill="black"/>
<path d="M129.82 203.92L130.25 203.76L134.1 189.18L134.06 189.06L129.82 203.92Z" fill="black"/>
<path d="M25.8301 44.28L66.5701 154.57L77.1501 49.45L25.8301 44.28Z" fill="black"/>
<path d="M88.5498 214.09L89.0198 215.36L89.3298 216.21L99.7798 215.02L119.16 207.85L86.7798 198.63L88.5498 214.09Z" fill="black"/>
<path d="M84.4602 178.29L87.7002 166.91L83.2202 167.42L84.4602 178.29Z" fill="black"/>
<path d="M84.46 178.29L80.48 192.25L80.86 193.28L82.38 197.37L86.78 198.63L84.46 178.29Z" fill="black"/>
<path d="M104.33 108.57L87.7002 166.91L122 162.99L126.81 205.03L129.82 203.92L134.06 189.06L104.33 108.57Z" fill="black"/>
<path d="M87.7 166.91L84.46 178.29L86.78 198.63L119.16 207.85L126.81 205.03L122 162.99L87.7 166.91Z" fill="black"/>
</g>
<path d="M420.811 113V29.1538H449.282L467.818 79.0664H468.225L486.76 29.1538H515.232V113H493.733V64.4238H482.286L506.051 31.478L474.616 113H461.426L429.991 31.478L453.756 64.4238H442.31V113H420.811ZM552.066 114.395C547.379 114.395 543.389 113.445 540.096 111.547C536.804 109.611 534.305 106.821 532.601 103.18C530.896 99.5389 530.044 95.1616 530.044 90.0483V48.8516H553.867V84.8188C553.867 88.034 554.623 90.5713 556.134 92.4307C557.644 94.29 559.891 95.2197 562.874 95.2197C564.268 95.2197 565.527 94.9679 566.651 94.4644C567.774 93.9608 568.723 93.2441 569.498 92.3145C570.311 91.3848 570.912 90.3001 571.299 89.0605C571.725 87.7822 571.938 86.3877 571.938 84.877V48.8516H595.761V113H571.938V101.088H571.473C570.427 103.955 568.994 106.395 567.174 108.41C565.392 110.385 563.242 111.877 560.724 112.884C558.206 113.891 555.32 114.395 552.066 114.395ZM609.47 113V48.8516H633.293V60.7632H633.758C635.346 56.4246 637.767 53.132 641.021 50.8853C644.275 48.5998 648.323 47.457 653.165 47.457C660.215 47.457 665.638 49.5876 669.435 53.8486C673.27 58.1097 675.187 64.0946 675.187 71.8032V113H651.364V77.0327C651.364 73.8175 650.608 71.2803 649.098 69.4209C647.587 67.5615 645.34 66.6318 642.357 66.6318C640.498 66.6318 638.89 67.0773 637.535 67.9683C636.179 68.8592 635.133 70.0794 634.397 71.6289C633.661 73.1784 633.293 74.9603 633.293 76.9746V113H609.47ZM688.605 113V48.8516H712.428V113H688.605ZM700.516 43.0991C697.185 43.0991 694.377 41.9757 692.091 39.729C689.844 37.4823 688.721 34.8288 688.721 31.7686C688.721 28.6696 689.844 26.0161 692.091 23.8081C694.377 21.5614 697.185 20.438 700.516 20.438C703.848 20.438 706.637 21.5614 708.884 23.8081C711.169 26.0161 712.312 28.6696 712.312 31.7686C712.312 34.8288 711.169 37.4823 708.884 39.729C706.637 41.9757 703.848 43.0991 700.516 43.0991ZM726.136 113V48.8516H749.959V60.9956H750.424C751.586 56.8507 753.794 53.5581 757.048 51.1177C760.341 48.6772 764.215 47.457 768.669 47.457C771.768 47.457 774.519 48.0187 776.92 49.1421C779.361 50.2267 781.356 51.8149 782.905 53.9067C784.493 55.9985 785.539 58.5552 786.043 61.5767H786.508C787.244 58.7489 788.541 56.2891 790.401 54.1973C792.26 52.0667 794.546 50.4204 797.257 49.2583C799.969 48.0575 802.952 47.457 806.206 47.457C810.389 47.457 814.05 48.3867 817.187 50.2461C820.364 52.1055 822.843 54.7008 824.625 58.0322C826.407 61.3249 827.298 65.1598 827.298 69.5371V113H803.475V75.7544C803.475 73.7013 803.184 72.0163 802.603 70.6992C802.022 69.3434 801.15 68.3363 799.988 67.6777C798.865 66.9805 797.432 66.6318 795.688 66.6318C794.1 66.6318 792.725 66.9998 791.563 67.7358C790.401 68.4718 789.51 69.5177 788.89 70.8735C788.309 72.1906 788.019 73.7982 788.019 75.6963V113H765.415V75.8125C765.415 73.7594 765.125 72.055 764.544 70.6992C763.963 69.3434 763.091 68.3363 761.929 67.6777C760.806 66.9805 759.392 66.6318 757.687 66.6318C756.099 66.6318 754.724 66.9998 753.562 67.7358C752.4 68.4718 751.509 69.5177 750.889 70.8735C750.269 72.2293 749.959 73.8369 749.959 75.6963V113H726.136Z" fill="black"/>
<path d="M440.695 257V192.677H418.615V173.154H487.412V192.677H465.332V257H440.695ZM518.886 258.395C511.952 258.395 505.987 257.058 500.99 254.385C495.993 251.712 492.138 247.877 489.427 242.88C486.754 237.845 485.417 231.86 485.417 224.926V224.868C485.417 217.895 486.754 211.93 489.427 206.971C492.1 201.974 495.876 198.139 500.757 195.466C505.677 192.793 511.468 191.457 518.131 191.457C524.794 191.457 530.565 192.774 535.446 195.408C540.366 198.042 544.162 201.761 546.835 206.564C549.547 211.368 550.902 217.023 550.902 223.531V230.271H497.039V216.791H539.862L528.88 229.458V220.277C528.88 217.682 528.454 215.455 527.602 213.595C526.789 211.736 525.626 210.322 524.116 209.354C522.605 208.346 520.823 207.843 518.77 207.843C516.717 207.843 514.935 208.346 513.424 209.354C511.914 210.322 510.732 211.736 509.88 213.595C509.066 215.455 508.66 217.682 508.66 220.277V229.574C508.66 232.17 509.086 234.397 509.938 236.256C510.79 238.116 512.01 239.549 513.599 240.556C515.187 241.525 517.104 242.009 519.351 242.009C521.443 242.009 523.186 241.68 524.581 241.021C525.975 240.324 527.06 239.53 527.834 238.639C528.648 237.748 529.151 236.992 529.345 236.373L529.403 236.198H550.612L550.437 236.954C549.973 239.045 549.101 241.331 547.823 243.81C546.544 246.25 544.704 248.594 542.303 250.841C539.901 253.049 536.783 254.869 532.948 256.303C529.151 257.697 524.464 258.395 518.886 258.395ZM594.172 258.395C587.238 258.395 581.273 257.058 576.276 254.385C571.279 251.712 567.424 247.877 564.713 242.88C562.04 237.845 560.704 231.84 560.704 224.868V224.81C560.704 217.876 562.04 211.93 564.713 206.971C567.424 201.974 571.259 198.139 576.218 195.466C581.215 192.793 587.142 191.457 593.998 191.457C600.235 191.457 605.697 192.6 610.384 194.885C615.11 197.132 618.77 200.308 621.366 204.415C624 208.521 625.317 213.343 625.317 218.883V219.231H603.643L603.585 218.65C603.314 215.745 602.365 213.44 600.738 211.736C599.111 209.993 597.019 209.121 594.463 209.121C592.41 209.121 590.667 209.741 589.233 210.98C587.8 212.181 586.715 213.963 585.979 216.326C585.243 218.65 584.875 221.498 584.875 224.868V224.926C584.875 228.335 585.224 231.221 585.921 233.583C586.657 235.946 587.742 237.728 589.175 238.929C590.608 240.13 592.371 240.73 594.463 240.73C597.136 240.73 599.247 239.878 600.796 238.174C602.385 236.469 603.314 234.145 603.585 231.201L603.643 230.62H625.317V230.969C625.317 236.198 624.077 240.885 621.598 245.03C619.158 249.136 615.613 252.39 610.965 254.792C606.316 257.194 600.719 258.395 594.172 258.395ZM636.861 257V173.154H660.684V204.763H661.149C662.738 200.425 665.159 197.132 668.412 194.885C671.666 192.6 675.714 191.457 680.557 191.457C685.282 191.457 689.272 192.425 692.526 194.362C695.819 196.26 698.317 199.03 700.022 202.671C701.726 206.274 702.578 210.651 702.578 215.803V257H678.755V221.033C678.755 217.818 678 215.28 676.489 213.421C674.978 211.562 672.732 210.632 669.749 210.632C667.89 210.632 666.282 211.077 664.926 211.968C663.57 212.859 662.524 214.079 661.788 215.629C661.052 217.178 660.684 218.96 660.684 220.975V257H636.861ZM715.692 257V192.852H739.515V204.763H739.98C741.568 200.425 743.989 197.132 747.243 194.885C750.497 192.6 754.545 191.457 759.387 191.457C766.437 191.457 771.86 193.588 775.657 197.849C779.492 202.11 781.409 208.095 781.409 215.803V257H757.586V221.033C757.586 217.818 756.83 215.28 755.32 213.421C753.809 211.562 751.562 210.632 748.579 210.632C746.72 210.632 745.112 211.077 743.757 211.968C742.401 212.859 741.355 214.079 740.619 215.629C739.883 217.178 739.515 218.96 739.515 220.975V257H715.692ZM826.306 258.395C819.295 258.395 813.271 257.097 808.235 254.501C803.199 251.867 799.326 248.071 796.614 243.113C793.941 238.116 792.605 232.073 792.605 224.984V224.868C792.605 217.895 793.98 211.91 796.73 206.913C799.519 201.916 803.432 198.1 808.468 195.466C813.503 192.793 819.45 191.457 826.306 191.457C833.201 191.457 839.167 192.774 844.202 195.408C849.238 198.042 853.131 201.858 855.882 206.855C858.671 211.813 860.065 217.818 860.065 224.868V224.984C860.065 232.111 858.709 238.174 855.998 243.171C853.286 248.129 849.413 251.906 844.377 254.501C839.341 257.097 833.317 258.395 826.306 258.395ZM826.364 240.73C828.34 240.73 830.044 240.13 831.477 238.929C832.911 237.69 833.995 235.908 834.731 233.583C835.506 231.221 835.893 228.354 835.893 224.984V224.868C835.893 221.536 835.487 218.708 834.673 216.384C833.898 214.021 832.794 212.22 831.361 210.98C829.928 209.741 828.243 209.121 826.306 209.121C824.369 209.121 822.684 209.741 821.251 210.98C819.818 212.22 818.714 214.021 817.939 216.384C817.164 218.708 816.777 221.536 816.777 224.868V224.984C816.777 228.354 817.145 231.221 817.881 233.583C818.655 235.908 819.759 237.69 821.193 238.929C822.626 240.13 824.35 240.73 826.364 240.73ZM871.9 257V173.154H895.723V257H871.9ZM941.201 258.395C934.19 258.395 928.166 257.097 923.131 254.501C918.095 251.867 914.221 248.071 911.509 243.113C908.837 238.116 907.5 232.073 907.5 224.984V224.868C907.5 217.895 908.875 211.91 911.626 206.913C914.415 201.916 918.327 198.1 923.363 195.466C928.399 192.793 934.345 191.457 941.201 191.457C948.097 191.457 954.062 192.774 959.098 195.408C964.134 198.042 968.027 201.858 970.777 206.855C973.566 211.813 974.961 217.818 974.961 224.868V224.984C974.961 232.111 973.605 238.174 970.893 243.171C968.182 248.129 964.308 251.906 959.272 254.501C954.236 257.097 948.213 258.395 941.201 258.395ZM941.259 240.73C943.235 240.73 944.94 240.13 946.373 238.929C947.806 237.69 948.891 235.908 949.627 233.583C950.401 231.221 950.789 228.354 950.789 224.984V224.868C950.789 221.536 950.382 218.708 949.569 216.384C948.794 214.021 947.69 212.22 946.257 210.98C944.823 209.741 943.138 209.121 941.201 209.121C939.265 209.121 937.579 209.741 936.146 210.98C934.713 212.22 933.609 214.021 932.834 216.384C932.059 218.708 931.672 221.536 931.672 224.868V224.984C931.672 228.354 932.04 231.221 932.776 233.583C933.551 235.908 934.655 237.69 936.088 238.929C937.521 240.13 939.245 240.73 941.259 240.73ZM1019.1 278.731C1012.67 278.731 1007.07 277.879 1002.31 276.175C997.545 274.47 993.788 272.146 991.037 269.202C988.326 266.258 986.757 262.946 986.331 259.266L986.273 258.743H1009.17L1009.28 259.034C1009.67 259.925 1010.68 260.893 1012.3 261.939C1013.97 262.985 1016.29 263.508 1019.28 263.508C1022.72 263.508 1025.28 262.772 1026.95 261.3C1028.61 259.867 1029.45 258.027 1029.45 255.78V244.391H1028.98C1028.01 246.522 1026.6 248.362 1024.74 249.911C1022.92 251.422 1020.73 252.603 1018.17 253.456C1015.65 254.269 1012.85 254.676 1009.75 254.676C1004.44 254.676 999.927 253.494 996.209 251.131C992.49 248.73 989.662 245.243 987.725 240.672C985.827 236.101 984.878 230.523 984.878 223.938V223.88C984.878 216.868 985.847 210.961 987.783 206.158C989.759 201.354 992.606 197.713 996.325 195.234C1000.08 192.716 1004.65 191.457 1010.04 191.457C1013.06 191.457 1015.81 191.961 1018.29 192.968C1020.77 193.936 1022.9 195.35 1024.68 197.209C1026.5 199.069 1027.91 201.316 1028.92 203.95H1029.45V192.852H1053.27V255.199C1053.27 259.77 1051.87 263.818 1049.08 267.343C1046.33 270.907 1042.4 273.696 1037.29 275.71C1032.18 277.724 1026.11 278.731 1019.1 278.731ZM1019.28 238.755C1021.37 238.755 1023.19 238.213 1024.74 237.128C1026.29 236.005 1027.47 234.397 1028.28 232.305C1029.14 230.213 1029.56 227.695 1029.56 224.751V224.693C1029.56 221.711 1029.14 219.173 1028.28 217.082C1027.43 214.99 1026.23 213.402 1024.68 212.317C1023.17 211.194 1021.37 210.632 1019.28 210.632C1017.22 210.632 1015.42 211.194 1013.87 212.317C1012.36 213.402 1011.18 214.99 1010.33 217.082C1009.48 219.135 1009.05 221.653 1009.05 224.635V224.693C1009.05 227.599 1009.46 230.117 1010.27 232.247C1011.12 234.339 1012.32 235.946 1013.87 237.07C1015.42 238.193 1017.22 238.755 1019.28 238.755ZM1066.56 257V192.852H1090.38V257H1066.56ZM1078.47 187.099C1075.14 187.099 1072.33 185.976 1070.04 183.729C1067.8 181.482 1066.67 178.829 1066.67 175.769C1066.67 172.67 1067.8 170.016 1070.04 167.808C1072.33 165.561 1075.14 164.438 1078.47 164.438C1081.8 164.438 1084.59 165.561 1086.83 167.808C1089.12 170.016 1090.26 172.67 1090.26 175.769C1090.26 178.829 1089.12 181.482 1086.83 183.729C1084.59 185.976 1081.8 187.099 1078.47 187.099ZM1135.33 258.395C1128.4 258.395 1122.43 257.058 1117.44 254.385C1112.44 251.712 1108.59 247.877 1105.87 242.88C1103.2 237.845 1101.87 231.86 1101.87 224.926V224.868C1101.87 217.895 1103.2 211.93 1105.87 206.971C1108.55 201.974 1112.32 198.139 1117.21 195.466C1122.12 192.793 1127.92 191.457 1134.58 191.457C1141.24 191.457 1147.01 192.774 1151.89 195.408C1156.81 198.042 1160.61 201.761 1163.28 206.564C1165.99 211.368 1167.35 217.023 1167.35 223.531V230.271H1113.49V216.791H1156.31L1145.33 229.458V220.277C1145.33 217.682 1144.9 215.455 1144.05 213.595C1143.24 211.736 1142.07 210.322 1140.56 209.354C1139.05 208.346 1137.27 207.843 1135.22 207.843C1133.16 207.843 1131.38 208.346 1129.87 209.354C1128.36 210.322 1127.18 211.736 1126.33 213.595C1125.51 215.455 1125.11 217.682 1125.11 220.277V229.574C1125.11 232.17 1125.53 234.397 1126.39 236.256C1127.24 238.116 1128.46 239.549 1130.05 240.556C1131.63 241.525 1133.55 242.009 1135.8 242.009C1137.89 242.009 1139.63 241.68 1141.03 241.021C1142.42 240.324 1143.51 239.53 1144.28 238.639C1145.1 237.748 1145.6 236.992 1145.79 236.373L1145.85 236.198H1167.06L1166.89 236.954C1166.42 239.045 1165.55 241.331 1164.27 243.81C1162.99 246.25 1161.15 248.594 1158.75 250.841C1156.35 253.049 1153.23 254.869 1149.4 256.303C1145.6 257.697 1140.91 258.395 1135.33 258.395ZM1208.53 258.395C1201.79 258.395 1196.11 257.504 1191.5 255.722C1186.89 253.901 1183.33 251.383 1180.81 248.168C1178.29 244.953 1176.78 241.215 1176.28 236.954L1176.22 236.431H1199.23L1199.35 236.896C1199.81 238.755 1200.78 240.208 1202.25 241.253C1203.76 242.299 1205.86 242.822 1208.53 242.822C1210.08 242.822 1211.39 242.667 1212.48 242.357C1213.6 242.009 1214.46 241.525 1215.04 240.905C1215.66 240.285 1215.97 239.549 1215.97 238.697V238.639C1215.97 237.477 1215.42 236.547 1214.34 235.85C1213.25 235.114 1211.39 234.494 1208.76 233.99L1197.14 231.84C1192.92 231.066 1189.35 229.826 1186.45 228.122C1183.54 226.378 1181.35 224.209 1179.88 221.614C1178.41 219.018 1177.67 216.074 1177.67 212.782V212.724C1177.67 208.269 1178.88 204.473 1181.28 201.335C1183.68 198.159 1187.13 195.718 1191.62 194.014C1196.11 192.309 1201.46 191.457 1207.66 191.457C1214.28 191.457 1219.8 192.445 1224.22 194.42C1228.67 196.396 1232.02 199.011 1234.27 202.265C1236.52 205.519 1237.64 209.102 1237.64 213.014V213.421H1216.02L1215.97 212.898C1215.81 211.387 1215.02 210.031 1213.58 208.831C1212.19 207.63 1210.21 207.029 1207.66 207.029C1206.22 207.029 1204.96 207.204 1203.88 207.552C1202.8 207.901 1201.94 208.404 1201.32 209.063C1200.74 209.683 1200.45 210.458 1200.45 211.387V211.445C1200.45 212.181 1200.66 212.84 1201.09 213.421C1201.52 213.963 1202.27 214.447 1203.36 214.874C1204.44 215.3 1205.95 215.706 1207.89 216.094L1219.51 218.244C1226.44 219.522 1231.52 221.575 1234.73 224.403C1237.95 227.231 1239.56 231.066 1239.56 235.908V235.966C1239.56 240.576 1238.26 244.565 1235.66 247.936C1233.07 251.267 1229.45 253.843 1224.8 255.664C1220.15 257.484 1214.73 258.395 1208.53 258.395Z" fill="black"/>
<defs>
<clipPath id="clip0_2139_2693">
<rect width="355.28" height="321.98" fill="white" transform="translate(0 1)"/>
</clipPath>
</defs>
</svg>
