<svg width="725" height="657" viewBox="0 0 725 657" fill="none" xmlns="http://www.w3.org/2000/svg">
<g clip-path="url(#clip0_2136_2691)">
<path d="M51.914 88.2312L0 603.926L105.522 614.537L135.846 313.359L52.7098 88.3128L51.914 88.2312Z" fill="black"/>
<path d="M203.615 436.708L243.163 422.077L203.615 436.708Z" fill="black"/>
<path d="M180.699 434.81L181.21 439.258L182.292 439.136L181.659 437.401L180.699 434.81Z" fill="black"/>
<path d="M366.622 27.9548L262.488 39.8714L262.937 43.8503L263.794 40.8304L363.214 69.1525L293.71 312.992L312.994 481.66L413.312 436.422L366.622 27.9548Z" fill="black"/>
<path d="M668.209 435.81L562.952 447.849L554.381 372.82L413.312 436.422L420.331 497.821L316.218 509.737L312.994 481.66L219.104 524.021L180.964 657L668.78 436.993L668.188 435.667L668.209 435.81Z" fill="black"/>
<path d="M420.332 497.821L413.312 436.422L312.994 481.66L316.218 509.737L420.332 497.821Z" fill="black"/>
<path d="M668.188 435.667L631.008 110.432L525.037 116.268L554.382 372.82L625.396 340.784L668.188 435.667Z" fill="black"/>
<path d="M668.209 435.81L668.189 435.667L625.396 340.784L554.382 372.82L562.953 447.849L668.209 435.81Z" fill="black"/>
<path d="M627.335 78.3348L631.008 110.432L725 105.249L719.204 0L419.046 16.5485L424.862 121.797L525.037 116.268L522.078 90.3533L627.335 78.3348Z" fill="black"/>
<path d="M627.336 78.3347L522.079 90.3533L525.038 116.268L631.009 110.432L627.336 78.3347Z" fill="black"/>
<path d="M164.231 390.245L168.109 400.693L165.007 392.347L164.231 390.245Z" fill="black"/>
<path d="M212.9 219.497L273.569 383.736L275.671 376.309L293.71 312.992L262.937 43.8503L212.9 219.497Z" fill="black"/>
<path d="M263.794 40.8303L262.937 43.8503L293.709 312.992L363.214 69.1525L263.794 40.8303Z" fill="black"/>
<path d="M184.066 443.911L203.616 436.708L182.291 439.136L184.066 443.911Z" fill="black"/>
<path d="M177.087 403.264L168.108 400.693L180.699 434.81L177.087 403.264Z" fill="black"/>
<path d="M168.108 400.693L180.699 434.81L168.108 400.693Z" fill="black"/>
<path d="M169.823 339.58L178.965 338.539L212.901 219.497L150.865 51.5635L52.5469 87.8844L52.7101 88.3129L157.436 98.8622L135.846 313.359L163.272 387.613L164.231 390.245L172.353 361.76L169.823 339.58Z" fill="black"/>
<path d="M264.917 414.058L265.794 413.732L273.651 383.981L273.569 383.736L264.917 414.058Z" fill="black"/>
<path d="M52.71 88.313L135.846 313.36L157.436 98.8624L52.71 88.313Z" fill="black"/>
<path d="M180.699 434.81L181.658 437.401L182.291 439.136L203.615 436.708L243.163 422.077L177.087 403.264L180.699 434.81Z" fill="black"/>
<path d="M172.353 361.76L178.964 338.539L169.822 339.58L172.353 361.76Z" fill="black"/>
<path d="M172.353 361.76L164.231 390.246L165.007 392.347L168.109 400.693L177.087 403.264L172.353 361.76Z" fill="black"/>
<path d="M212.901 219.497L178.965 338.539L248.959 330.54L258.774 416.323L264.917 414.058L273.569 383.736L212.901 219.497Z" fill="black"/>
<path d="M178.964 338.539L172.353 361.76L177.087 403.264L243.163 422.077L258.774 416.323L248.958 330.541L178.964 338.539Z" fill="black"/>
</g>
<defs>
<clipPath id="clip0_2136_2691">
<rect width="725" height="657" fill="white"/>
</clipPath>
</defs>
</svg>
